<?xml version="1.0" encoding="UTF-8"?> <svg xmlns="http://www.w3.org/2000/svg" width="1235.5" height="275"><path d="M237.476 185.127l-73.72 73.723-.06.06c-20.364 20.297-53.324 20.275-73.66-.06l-73.722-73.723c-20.335-20.335-20.356-53.298-.06-73.659l.06-.061L126.896.829l8.544 8.544c17.674 17.675 17.674 46.331 0 64.005l-8.541 8.544-.003-.003-61.74 61.741v.002c-.021.019-.04.036-.058.058a6.513 6.513 0 0 0 .058 9.156l10.136 10.139h.003l46.993 46.994a6.516 6.516 0 0 0 9.217 0l57.132-57.133a6.518 6.518 0 0 0 0-9.216l-46.993-46.994 8.541-8.543c17.674-17.674 46.331-17.674 64.006 0l23.285 23.284c20.358 20.357 20.358 53.364 0 73.72m147.317-85.706c-8.133-10.257-19.187-15.18-31.282-15.18-25.444 0-44.423 18.051-44.423 50.462 0 33.026 19.396 50.258 44.423 50.258 12.513 0 23.357-5.538 31.282-15.386v12.223c0 20.103-15.225 25.437-27.945 25.437-12.514 0-23.358-3.486-31.492-12.103l-11.888 18.667c12.722 10.872 26.277 14.77 43.38 14.77 24.818 0 54.433-9.231 54.433-46.771V86.702h-26.487v12.719zm0 39.077c0 12.078-9.054 22.547-21.026 23.425-.572.042-1.142.063-1.706.063-15.225 0-25.652-10.257-25.652-27.283s10.428-27.282 25.652-27.282c.534 0 1.072.019 1.614.055 12.014.803 21.118 11.317 21.118 23.43v7.592zm103.181-54.257c-16.477 0-28.78 7.795-35.246 15.18V46.376h-26.695v139.405h26.695v-66.872c4.379-5.744 12.514-11.488 22.941-11.488 11.262 0 18.562 4.308 18.562 18.052v60.309h26.486v-70.359c0-19.284-10.636-31.182-32.743-31.182m94.777 0c-33.16 0-53.183 23.795-53.183 51.897 0 28.104 20.022 52.104 53.183 52.104 33.369 0 53.391-24.001 53.391-52.104 0-28.102-20.022-51.897-53.391-51.897m0 80.821c-16.477 0-25.652-13.333-25.652-28.924 0-15.384 9.176-28.718 25.652-28.718 16.684 0 25.86 13.334 25.86 28.718 0 15.591-9.176 28.924-25.86 28.924m223.73-118.686h26.487v139.405h-26.487zm86.034 37.865c-15.85 0-31.7 4.717-44.005 15.59l10.429 18.256c8.341-7.589 18.352-11.691 28.988-11.691 13.348 0 22.107 6.564 22.107 16.615v12.514c-6.674-7.796-18.354-12.103-31.91-12.103-16.058 0-34.828 8.614-34.828 31.999 0 22.155 18.771 32.822 34.828 32.822 13.139 0 25.026-4.718 31.91-12.924v10.462h26.695V121.78c0-28.513-21.064-37.539-44.214-37.539m17.519 75.003c0 2.011-.852 3.935-2.361 5.252-4.662 4.07-11.713 6.105-18.912 6.105-10.427 0-18.979-5.333-18.979-14.77s8.552-14.976 18.979-14.976c7.213 0 14.277 2.19 18.941 6.323a6.985 6.985 0 0 1 2.332 5.227v6.839zm163.452-75.003c-15.433 0-28.78 9.025-34.621 17.847-3.545-11.078-13.139-17.847-27.945-17.847-15.435 0-28.573 9.436-32.952 15.18V86.702h-26.486v99.079h26.486v-66.872c3.962-5.335 11.678-11.488 20.856-11.488 10.843 0 15.017 6.563 15.017 15.795v62.565h26.693v-66.872c3.754-5.335 11.471-11.488 20.855-11.488 10.844 0 15.016 6.563 15.016 15.795v62.565h26.695V114.19c.001-20.308-11.052-29.949-29.614-29.949m101.929 0c-12.307 0-23.359 5.332-31.076 14.975V86.702h-26.486v139.404h26.486v-53.043c8.344 10.256 19.189 15.18 31.076 15.18 25.859 0 44.631-19.077 44.631-52.104s-18.772-51.898-44.631-51.898m-8.344 80.821a23.54 23.54 0 0 1-3.262-.233c-11.299-1.58-19.471-11.736-19.471-23.215v-10.703c0-12.114 9.105-22.633 21.119-23.436.541-.036 1.08-.055 1.613-.055 15.227 0 25.652 11.692 25.652 28.718.002 17.232-10.424 28.924-25.651 28.924m-439.002-8.401c0 18.251-15.094 31.59-43.025 31.59-17.531 0-34.418-5.746-45.063-15.396l11.479-18.874c7.514 6.972 22.314 13.748 34.836 13.748 11.463 0 16.12-4.311 16.12-10.465 0-16.195-58.887-2.874-58.887-41.844 0-16.62 14.608-31.183 41.307-31.183 15.757 0 30.779 5.709 40.571 12.716a61.73 61.73 0 0 1 2.053 1.525l-2.053 3.565-8.592 14.899c-6.034-6.156-19.684-12.185-31.979-12.185-9.601 0-15.861 4.098-15.861 9.632 0 14.565 59.094 2.256 59.094 42.272m63.66-44.77v-22.19h-22.4V61.756h-26.506v27.945l-12.768 22.189h12.768v47.094c0 22.544 11.096 29.267 27.445 29.267 8.973 0 15.826-2.255 21.461-5.713v-21.215c-3.878 2.183-8.713 3.94-13.636 3.94-5.983 0-8.765-1.862-8.765-9.862V111.89h22.401z" fill="#1d94ee"></path></svg> 